<?xml version="1.0" encoding="UTF-8" standalone="no"?>
<!-- Created with Inkscape (http://www.inkscape.org/) -->

<svg
   width="500mm"
   height="500mm"
   viewBox="0 0 500 500"
   version="1.1"
   id="svg1"
   xml:space="preserve"
   inkscape:version="1.4 (e7c3feb, 2024-10-09)"
   sodipodi:docname="femesh_logo.svg"
   xmlns:inkscape="http://www.inkscape.org/namespaces/inkscape"
   xmlns:sodipodi="http://sodipodi.sourceforge.net/DTD/sodipodi-0.dtd"
   xmlns="http://www.w3.org/2000/svg"
   xmlns:svg="http://www.w3.org/2000/svg"><sodipodi:namedview
     id="namedview1"
     pagecolor="#ffffff"
     bordercolor="#000000"
     borderopacity="0.25"
     inkscape:showpageshadow="2"
     inkscape:pageopacity="0.0"
     inkscape:pagecheckerboard="0"
     inkscape:deskcolor="#d1d1d1"
     inkscape:document-units="mm"
     inkscape:zoom="0.3532232"
     inkscape:cx="823.84169"
     inkscape:cy="890.37186"
     inkscape:window-width="1920"
     inkscape:window-height="995"
     inkscape:window-x="0"
     inkscape:window-y="0"
     inkscape:window-maximized="1"
     inkscape:current-layer="layer1" /><defs
     id="defs1" /><g
     inkscape:label="Layer 1"
     inkscape:groupmode="layer"
     id="layer1"><g
       id="g10-6-6"
       transform="matrix(1.4814823,0,0,1.4814823,-143.08561,-94.002162)"
       style="fill:#cfffff;fill-opacity:1"><path
         d="m 265.33264,63.451424 -78.12495,45.105256 78.12495,45.10629 78.12495,-45.10526 z"
         style="fill:#cfffff;fill-opacity:1"
         id="path10-1-9" /><path
         d="m 434.08203,265.52488 -78.12495,45.10526 5.2e-4,90.21154 78.12495,-45.10525 z"
         style="fill:#cfffff;fill-opacity:1"
         id="path9-2-2" /><path
         d="m 96.582735,265.52384 5.17e-4,90.21155 78.125468,45.10629 -5.2e-4,-90.21154 z"
         style="fill:#cfffff;fill-opacity:1"
         id="path8-9-6" /><path
         d="m 265.33264,265.52384 5.2e-4,90.21155 78.12546,45.10629 -5.1e-4,-90.21154 z m -5.2e-4,10e-4 -78.12494,45.10526 5.1e-4,90.21154 78.12495,-45.10525 z"
         style="fill:#cfffff;fill-opacity:1"
         id="path7-3-4" /><path
         d="m 180.95795,119.38186 5.1e-4,90.21155 78.12547,45.10629 -5.2e-4,-90.21155 z m -5.2e-4,90.21155 -78.12495,45.10526 78.12495,45.10629 78.12495,-45.10526 z"
         style="fill:#cfffff;fill-opacity:1"
         id="path6-1-8" /><path
         d="m 349.70734,119.38289 -78.12495,45.10526 5.2e-4,90.21 78.12443,-45.10474 5.1e-4,5.1e-4 z m 5.1e-4,90.21103 v 5.2e-4 l -78.12443,45.10474 78.12392,45.10578 78.12494,-45.10526 z"
         style="fill:#cfffff;fill-opacity:1"
         id="path5-9-8" /></g></g></svg>
